<svg xmlns="http://www.w3.org/2000/svg" width="140" height="23" fill="none"><g clip-path="url(#clip0)"><path fill="#16CA92" d="M136.707 14.468c-.191 0-.419.153-.514.343l-1.39 2.932c-.095.19 0 .342.171.342h3.084c.191 0 .419-.152.514-.342l1.39-2.932c.095-.19 0-.343-.171-.343h-3.084z"/><path fill="#225447" d="M86.848 10.699c0 2.437-.99 3.027-2.284 3.027-1.295 0-2.285-.61-2.285-3.027 0-2.437.99-3.027 2.285-3.027 1.294 0 2.284.61 2.284 3.027zm5.635 0c0-5.254-3.579-7.577-7.92-7.577-4.34 0-7.919 2.342-7.919 7.577 0 5.254 3.579 7.577 7.92 7.577 4.34 0 7.919-2.323 7.919-7.577zM94.158 18.085h4.436c.342 0 .609-.247.609-.59V8.472s1.142-.534 2.208-.534c.571 0 1.2.305 1.2 1.39v8.167c0 .343.247.59.609.59h4.435c.343 0 .61-.247.61-.59V8.224c0-2.932-.952-5.16-4.398-5.16-2.342 0-3.636 1.086-4.683 2.19-.19-1.447-1.39-2.018-2.875-2.018h-2.113c-.343 0-.609.248-.609.59v13.67c-.02.342.228.59.571.59zM118.317 8.357c0 .248-.038.514-.058.819h-3.54c0-1.942.609-2.646 1.865-2.646 1.066.019 1.733.533 1.733 1.827zm4.911 1.028c0-4.512-2.76-6.282-6.682-6.282-4.816 0-7.443 3.16-7.443 7.577 0 4.436 2.341 7.577 7.538 7.577 2.532 0 5.007-.629 5.978-1.58.247-.248.381-.705.381-1.523v-.876c0-.552-.248-.819-.628-.819-.343 0-.895.248-1.733.42-.571.113-1.275.209-2.113.209-2.627 0-3.769-.457-3.769-2.361h8.319c.114-.723.152-1.694.152-2.342zM126.065 22.464h4.093c.343 0 .685 0 .952-.571l3.027-6.435 5.311-10.794c.229-.419.381-.761.381-1.085 0-.305-.229-.552-.571-.552h-4.265c-.476 0-.723.114-.894.514l-2.913 6.263s-.59-1.409-.971-2.284l-1.675-3.98c-.153-.36-.419-.513-.895-.513h-4.264c-.343 0-.571.247-.571.552 0 .343.152.666.38 1.085l5.312 10.794-3.027 6.435c0 .342.247.57.59.57zM75.33 17.552V.61c0-.304-.247-.533-.609-.533h-4.15c-.343 0-.514.19-.628.419l-1.999 3.731c-.533.99-1.828 3.77-1.828 3.77s-1.332-2.837-1.827-3.77l-.743-1.39-6.644 9.481v5.235c0 .305.248.533.61.533h4.15c.342 0 .609-.228.609-.533 0 0-.095-8.623 0-8.623.057 0 .723 1.484 1.618 2.988l.895 1.523c.228.362.419.476.761.476h1.2c.342 0 .533-.076.761-.476l.895-1.523c.895-1.523 1.542-2.989 1.618-2.989.095 0 0 8.624 0 8.624 0 .305.247.533.61.533h4.15c.285 0 .551-.228.551-.533z"/><path fill="#16CA92" d="M10.166 12.412c0 1.637-.838 2.056-2.437 2.056H5.635V10.47h2.056c1.58 0 2.475.59 2.475 1.942zm-.857-7.196c0 1.447-.8 1.656-2.056 1.656H5.635v-3.14H6.93c1.427 0 2.38.304 2.38 1.484zm5.445-.552c0-2.76-1.923-4.607-5.92-4.607H.608C.247.057 0 .286 0 .59v17.02c0 .304.247.532.61.532h8.642c4.17 0 6.454-2.037 6.454-5.159 0-2.227-1.276-3.636-3.58-4.511 1.638-.743 2.628-2.056 2.628-3.808zM25.815 8.357c0 .248-.039.514-.058.819h-3.54c0-1.942.609-2.646 1.865-2.646 1.066.019 1.733.533 1.733 1.827zm4.911 1.028c0-4.512-2.76-6.282-6.682-6.282-4.816 0-7.443 3.16-7.443 7.577 0 4.436 2.341 7.577 7.538 7.577 2.532 0 5.007-.629 5.978-1.58.247-.248.38-.705.38-1.523v-.876c0-.552-.247-.819-.627-.819-.343 0-.895.248-1.733.42-.571.113-1.275.209-2.113.209-2.627 0-3.77-.457-3.77-2.361h8.32c.114-.723.152-1.694.152-2.342zM37.656 18.276c3.255 0 6.34-1.485 6.34-5.045 0-3.103-2.057-3.922-5.007-4.436-.99-.19-1.447-.342-1.447-.933 0-.628.533-.856 1.142-.856 1.428 0 2.475.552 3.332 1.028.342.21.628.304.894.304.42 0 .629-.247.629-.875V5.54c0-.571-.153-.933-.895-1.333-.8-.457-2.494-1.085-4.721-1.085-3.047 0-6.054 1.542-6.054 4.893 0 3.103 2.303 3.826 5.026 4.302.818.152 1.39.305 1.39 1.009 0 .723-.667.914-1.543.914-1.142 0-2.589-.667-3.446-1.123-.418-.21-.628-.305-.894-.305-.42 0-.629.248-.629.876v2.037c0 .609.153.875.895 1.332.724.438 2.399 1.219 4.988 1.219zM54.466 3.389c.095-.19 0-.343-.172-.343h-1.941V.571c0-.343-.248-.571-.61-.571h-4.435c-.343 0-.61.247-.61.571v2.513h-1.446c-.343 0-.61.248-.61.571v2.19c0 .342.248.57.61.57h1.447v8.51c0 1.675.932 2.723 2.341 3.16l3.313-4.702v-6.93l2.113-3.064z"/></g><defs><clipPath id="clip0"><path fill="#fff" d="M0 0h140v22.464H0z"/></clipPath></defs></svg>