<svg xmlns="http://www.w3.org/2000/svg" width="131" height="131" fill="none"><g clip-path="url(#clip0_927_9858)"><path fill="#0A4133" d="M18.428 43.82c1.08-.059 2.102-.68 2.736-1.883.602-1.145.279-1.831-.213-2.09-.906-.479-1.74.57-3.034 1.728-1.32 1.21-2.666 1.811-4.329.931-1.863-.977-2.057-3.209-1.054-5.117.925-1.76 2.322-2.388 3.552-2.562L16.5 37c-.719.096-1.41.51-1.883 1.403-.446.848-.362 1.56.13 1.818.86.453 1.326-.349 2.866-1.688 1.701-1.501 2.989-1.812 4.477-1.029 1.83.964 2.53 2.886 1.145 5.525-1.171 2.232-2.944 3.073-4.53 3.054l-.27-2.27-.007.006zm4.968-8.579c1.067.149 2.193-.259 3.047-1.32.809-1.009.628-1.74.194-2.09-.796-.64-1.818.22-3.312 1.113-1.527.932-2.963 1.268-4.426.084-1.637-1.32-1.397-3.545-.051-5.22 1.242-1.547 2.736-1.896 3.979-1.831l-.013 2.212c-.725-.039-1.482.233-2.116 1.016-.602.744-.654 1.456-.227 1.805.758.615 1.366-.09 3.132-1.106 1.96-1.145 3.28-1.204 4.587-.15 1.61 1.295 1.928 3.32.058 5.636-1.579 1.967-3.48 2.446-5.033 2.122l.174-2.277.007.006zm.641-12.952l1.967-1.689 6.107 7.104 3.468-2.983 1.533 1.786-5.435 4.671-7.647-8.89h.007zm11.73-8.806l7.2-3.494 1.03 2.116-4.873 2.368.964 1.98 4.555-2.213 1.01 2.077-4.555 2.212 1.093 2.258 4.982-2.42 1.029 2.123-7.311 3.545-5.118-10.546-.006-.006zm11.316-1.559l2.426-.628.265 1.029c.155-.809.945-1.534 2.083-1.825 2.019-.524 3.475.473 4.025 2.588l1.287 4.982-2.426.628-1.217-4.691c-.245-.945-.918-1.41-1.902-1.158-.925.24-1.436 1.087-1.19 2.044l1.19 4.607-2.426.627-2.122-8.21.007.007zM61.97 8.941c1.261-.084 2.477.24 3.629 1.346l-1.475 1.663c-.557-.518-1.132-.802-2.006-.744-1.21.077-2.102 1.067-2.018 2.355.084 1.274 1.1 2.135 2.31 2.057.873-.058 1.403-.414 1.889-1.003l1.682 1.456c-.997 1.242-2.161 1.727-3.423 1.812-2.588.168-4.788-1.573-4.962-4.154-.175-2.581 1.785-4.62 4.367-4.788h.006zm5.576.182l2.497.226-.103 1.158c.46-.822 1.41-1.223 2.568-1.12.233.02.518.078.647.11l-.213 2.343a4.369 4.369 0 00-.828-.162c-1.424-.13-2.336.615-2.459 1.993l-.369 4.121-2.497-.226.763-8.443h-.006zm6.799.549l2.523.654.764 6.036 3.63-4.897 2.523.653-7.783 10.119-2.491-.647 2.102-2.672-1.274-9.246h.006zm11.465 3.242l2.245 1.106-.492.996c.531-.543 1.663-.588 2.821-.013 2.155 1.068 2.918 3.598 1.831 5.797-1.08 2.187-3.558 3.138-5.713 2.077-1.158-.576-1.817-1.482-1.701-2.245l-1.928 3.908-2.245-1.107 5.189-10.513-.007-.006zm1.288 7.725c1.087.537 2.342.122 2.866-.952.53-1.074.09-2.316-.996-2.853-1.1-.543-2.4-.155-2.931.919-.53 1.074-.046 2.342 1.054 2.886h.007zm7.925-.129l-.918-.66 1.32-1.845.918.654 1.89-2.64 1.979 1.423-1.889 2.64 1.52 1.087-1.326 1.844-1.52-1.087-3.617 5.046-1.98-1.423 3.617-5.046.007.006zm6.082 1.76l1.883 1.655-5.61 6.36-1.882-1.656 5.609-6.36zm1.275-1.728a1.427 1.427 0 012.018-.13c.596.524.66 1.41.13 2.019a1.416 1.416 0 01-2.006.116 1.422 1.422 0 01-.136-2.005h-.006zm5.518 8.164c1.688 1.986 1.533 4.878-.375 6.496-1.909 1.624-4.788 1.307-6.47-.686-1.702-1.999-1.534-4.878.375-6.495 1.909-1.624 4.775-1.32 6.47.685zm-5.118 4.341c.796.939 2.168 1.049 3.119.246a2.203 2.203 0 00.265-3.118c-.809-.951-2.18-1.035-3.119-.246-.951.809-1.074 2.167-.265 3.119zm9.317 1.469l1.21 2.194-.925.51c.821-.045 1.714.531 2.283 1.566 1.01 1.825.402 3.487-1.507 4.542l-4.509 2.484-1.21-2.193 4.244-2.342c.854-.472 1.139-1.242.653-2.128-.465-.842-1.41-1.126-2.277-.647l-4.167 2.296-1.209-2.193 7.42-4.095-.006.006zm6.85 38.832l.285-2.07.783.11-.68 4.994-.783-.11.285-2.07-6.813-.931.117-.848 6.813.932-.007-.007zm-1.979 3.85l-.188.795-.912-.213c.517.401.795 1.08.608 1.896a3.58 3.58 0 01-.097.33l-.854-.201a2.2 2.2 0 00.181-.524c.194-.835-.265-1.598-1.178-1.812l-3.137-.737.187-.796 5.396 1.268-.006-.006zm-1.093 4.438l-.266.77-3.137-1.093c-.997-.35-1.702.032-2 .899-.304.873.007 1.61 1.016 1.96l3.125 1.094-.265.77-3.138-1.094c-1.462-.511-1.889-1.727-1.443-3.008.434-1.236 1.482-1.909 2.905-1.41l3.209 1.118-.006-.006zm-6.024 4.6c-.582-.032-1.119.272-1.423.906-.382.795-.175 1.235.233 1.43.524.252.951-.078 1.585-.719.686-.672 1.339-1.093 2.116-.718.821.395 1.086 1.3.646 2.226a1.814 1.814 0 01-1.591 1.054l-.084-.737a1.1 1.1 0 00.99-.621c.258-.544.084-.997-.272-1.165-.466-.22-.841.123-1.359.621-.893.874-1.52 1.21-2.394.796-.841-.401-1.125-1.294-.556-2.478.427-.893 1.191-1.443 2.155-1.333l-.039.75-.007-.012zm.576 6.049l.356-.608.653.388-.356.608 1.831 1.08-.414.7-1.831-1.08-.627 1.06-.654-.388.628-1.061-4.121-2.433.414-.698 4.121 2.432zm-3.138 1.359c1.449 1.055 1.695 2.698.77 3.979-.906 1.249-2.498 1.346-3.734.446 0 0-.148-.11-.278-.213l2.64-3.643c-1.016-.679-2.096-.517-2.782.427-.472.647-.498 1.178-.375 1.831l-.744.13c-.214-1.016.051-1.74.524-2.394.97-1.333 2.549-1.605 3.946-.589l.033.026zm-2.161 3.934c.724.524 1.766.355 2.316-.401.595-.822.485-1.928-.207-2.504l-2.103 2.905h-.006zm-1.469 5.33c-.75.79-1.54.874-2.077.744l2.135 2.032-.562.589-5.552-5.286.563-.589.596.569c-.156-.524-.11-1.32.64-2.109 1.068-1.125 2.834-1.177 4.063-.006 1.229 1.164 1.262 2.931.194 4.056zm-3.707-3.526c-.822.861-.75 2.142.155 3.002.9.854 2.187.861 3.002 0 .79-.828.693-2.083-.207-2.943-.899-.854-2.161-.887-2.95-.059zm-4.199 5.92c.712 1.029.453 1.967-.097 2.97.55.136 1.178.311 1.63.958.486.698.402 1.759-.55 2.413-.983.686-1.927.369-2.4-.317-.478-.686-.452-1.521.117-2.556l-2.303-.679c.051.485.271 1.016.614 1.501l-.705.492c-.395-.609-.737-1.43-.783-2.213l-1.986-.563.893-.621 1.1.311c.026-.932.537-1.644 1.268-2.148 1.12-.777 2.413-.693 3.209.452h-.007zm-3.662 1.909l2.815.815c.414-.77.647-1.501.161-2.199-.536-.777-1.436-.777-2.14-.285-.519.356-.887.964-.842 1.669h.007zm2.905 3.571c.33.479.9.486 1.288.22.453-.31.608-.821.291-1.281-.265-.381-.582-.491-1.359-.705-.375.66-.537 1.307-.22 1.773v-.007zm-8.423.182c-.68-.699-1.534-.842-2.323-.499-.945.414-1.184 1.139-.893 1.805.363.829 1.061.867 2.239.88 1.28.02 2.258.104 2.743 1.217.453 1.035-.058 2.167-1.197 2.665-.925.408-1.727.22-2.42-.31l.492-.66c.466.375.97.524 1.618.239.647-.285.996-.951.73-1.572-.31-.705-1.028-.725-2.037-.731-1.54 0-2.427-.188-2.944-1.378-.479-1.087-.078-2.258 1.365-2.892 1.106-.485 2.277-.311 3.164.621l-.537.608v.007zm-4.892 2.853c.505 1.721-.31 3.177-1.83 3.617-1.483.433-2.796-.466-3.223-1.935 0 0-.052-.181-.09-.343l4.321-1.261c-.381-1.159-1.345-1.696-2.465-1.366-.77.227-1.112.622-1.423 1.217l-.666-.356c.453-.932 1.106-1.346 1.882-1.566 1.585-.459 2.996.298 3.481 1.954l.013.045v-.006zm-4.121 1.786c.252.854 1.177 1.365 2.077 1.099.97-.284 1.565-1.222 1.371-2.109l-3.442 1.003-.006.007zm-4.541 3.325c-.829.129-1.586-.039-2.207-.492l.401-.64c.48.356 1.068.485 1.689.388 1.216-.194 1.96-1.262 1.76-2.484-.194-1.23-1.236-2.006-2.452-1.812-.621.097-1.139.401-1.482.893l-.576-.485c.447-.628 1.12-1.023 1.941-1.158 1.605-.259 3.106.763 3.371 2.432.265 1.669-.841 3.106-2.445 3.364v-.006zm-3.629.298l-.816.032-.123-3.319c-.038-1.055-.653-1.572-1.565-1.54-.925.032-1.495.595-1.456 1.663l.123 3.306-.815.032-.123-3.319c-.058-1.553.925-2.387 2.277-2.439 1.307-.045 2.316.686 2.368 2.193l.123 3.397.006-.006zm-6.497.103l-.809-.052.059-.931c-.31.575-.932.964-1.767.912a2.027 2.027 0 01-.336-.045l.058-.88c.13.038.317.077.544.09.854.058 1.533-.53 1.598-1.462l.213-3.215.816.051-.363 5.532h-.013zm-3.389-3.002c-.291 1.766-1.65 2.724-3.209 2.471-1.52-.246-2.316-1.63-2.07-3.138 0 0 .032-.187.064-.342l4.439.724c.155-1.21-.48-2.109-1.63-2.297-.79-.129-1.275.085-1.806.486l-.446-.609c.809-.646 1.578-.731 2.374-.601 1.63.265 2.575 1.559 2.297 3.261v.045h-.013zm-4.49-.168c-.142.88.472 1.74 1.397 1.889.997.162 1.941-.427 2.142-1.307l-3.539-.582zm-10.624 1.468a3.852 3.852 0 01-2.251-2.277l.737-.278c.285.808.906 1.462 1.805 1.818 1.682.66 3.416-.13 4.083-1.831.666-1.702-.078-3.455-1.76-4.115-.9-.349-1.837-.291-2.607.136l-.35-.705a3.867 3.867 0 013.248-.175c2.057.809 3.106 3.021 2.271 5.163-.835 2.141-3.112 3.06-5.17 2.251l-.006.013zm-5.868-5.195c-1.41-.815-1.935-2.549-1.087-4.018.847-1.468 2.614-1.883 4.024-1.067 1.41.815 1.934 2.549 1.087 4.017-.848 1.469-2.614 1.883-4.024 1.068zM41.077 108c-1.067-.615-2.316-.259-2.937.822-.621 1.074-.31 2.335.757 2.95 1.068.615 2.316.259 2.937-.822.621-1.074.31-2.335-.757-2.95zm-6.477 1.786l-.646-.498.57-.744c-.59.297-1.346.252-2.039-.278-1.009-.777-1.113-1.922-.356-2.912l2.161-2.808.647.499-2.05 2.665c-.563.731-.486 1.527.232 2.077.731.563 1.63.459 2.2-.278l2.019-2.627.647.498-3.378 4.393-.006.013zm-5.123-4.089l-.582-.569.654-.667c-.622.22-1.366.085-1.987-.524-.905-.892-.867-2.044 0-2.93l2.485-2.524.582.57-2.362 2.394c-.646.659-.666 1.455-.025 2.089.66.647 1.559.66 2.212-.006l2.323-2.355.582.569-3.888 3.947.006.006zm-2.264-6.25c-1.41 1.107-3.06.893-4.037-.35-.951-1.209-.608-2.768.595-3.713 0 0 .149-.116.285-.207l2.782 3.54c.931-.79 1.067-1.877.35-2.796-.499-.634-.997-.802-1.663-.867l.084-.75c1.035.07 1.662.53 2.154 1.158 1.022 1.294.848 2.892-.511 3.96l-.032.025h-.007zm-3.196-3.157c-.699.55-.828 1.604-.246 2.335.628.796 1.721.997 2.465.486l-2.219-2.821zm-4.775-2.95c-.434-.718-.563-1.482-.369-2.232l.744.13c-.149.582-.052 1.17.272 1.707.634 1.055 1.902 1.346 2.963.705 1.061-.64 1.397-1.895.763-2.95-.323-.537-.802-.906-1.384-1.041l.233-.719c.75.175 1.371.654 1.798 1.366.841 1.39.46 3.163-.996 4.037-1.45.873-3.196.388-4.037-1.01l.013.007zm-1.087-3.953l.304.634-.685.323-.305-.634-1.915.913-.349-.738 1.915-.912-.53-1.113.685-.324.53 1.113 4.323-2.057.35.737-4.323 2.058zm-3.423-2.161a.551.551 0 11-.415-1.023.551.551 0 01.415 1.023zm1.314-.686l-.304-.757 5.137-2.077.304.757-5.137 2.077zm-1.96-5.04c-.466-1.56.35-3.177 1.973-3.662 1.624-.485 3.19.427 3.656 1.993.466 1.559-.35 3.176-1.974 3.662-1.623.485-3.19-.427-3.655-1.993zm4.904-1.456c-.35-1.184-1.5-1.779-2.698-1.423-1.19.356-1.83 1.482-1.481 2.666.35 1.183 1.5 1.779 2.698 1.423 1.19-.356 1.83-1.482 1.481-2.666zm-5.933-3.17l-.123-.802.925-.142c-.634-.188-1.151-.744-1.287-1.605-.194-1.261.517-2.16 1.747-2.355l3.5-.543.123.802-3.326.518c-.912.142-1.404.776-1.268 1.669.142.912.86 1.456 1.786 1.313l3.273-.511.123.802-5.48.854h.007z"/><path stroke="#0A4133" stroke-miterlimit="10" stroke-width=".647" d="M65.06 105.665c22.425 0 40.605-18.18 40.605-40.605 0-22.425-18.18-40.604-40.605-40.604-22.425 0-40.604 18.18-40.604 40.604 0 22.425 18.18 40.605 40.604 40.605z"/><path stroke="#0A4133" stroke-miterlimit="10" stroke-width=".647" d="M65.06 129.797c35.754 0 64.737-28.984 64.737-64.737 0-35.753-28.983-64.736-64.736-64.736S.324 29.307.324 65.06s28.984 64.737 64.737 64.737z"/><path stroke="#0A4133" stroke-linecap="round" stroke-linejoin="round" stroke-width="2.143" d="M76.641 83.366H58.484c-4.116 0-7.484-3.557-7.484-7.905V61.3h30v14.16M54.098 56.242c0-6.94 5.326-12.565 11.898-12.565 6.57 0 11.897 5.625 11.897 12.565"/><path fill="#16CA92" stroke="#16CA92" stroke-width="1.044" d="M64.818 75.98a.868.868 0 00.667.273.868.868 0 00.667-.273l5.555-5.867c.37-.391.37-1.018 0-1.37-.37-.39-.963-.39-1.296 0l-4.926 5.163-3.037-3.207c-.37-.39-.964-.39-1.296 0-.37.391-.37 1.018 0 1.37l3.666 3.911z"/></g><defs><clipPath id="clip0_927_9858"><path fill="#fff" d="M0 0h130.12v130.12H0z"/></clipPath></defs></svg>