<svg width="24" height="24" viewBox="0 0 24 24" fill="none" xmlns="http://www.w3.org/2000/svg">
  <path d="M12 3.5C14.7088 5.32556 17.5434 5.88327 19.5 6V11.6985C19.5 16.0262 16.3755 19.1434 12 20.5C7.62455 19.1434 4.5 16.0262 4.5 11.6985V6C6.45664 5.88327 9.2912 5.32556 12 3.5Z" stroke="#22C79A" stroke-width="1.7" stroke-linecap="round" stroke-linejoin="round"/>
  <path d="M9.25 12.75C9.25 11.7835 10.0335 11 11 11C11.9665 11 12.75 11.7835 12.75 12.75C12.75 13.7165 11.9665 14.5 11 14.5C10.0335 14.5 9.25 13.7165 9.25 12.75Z" stroke="#22C79A" stroke-width="1.7"/>
  <path d="M13.75 13.25C13.75 12.4216 14.4216 11.75 15.25 11.75C16.0784 11.75 16.75 12.4216 16.75 13.25C16.75 14.0784 16.0784 14.75 15.25 14.75C14.4216 14.75 13.75 14.0784 13.75 13.25Z" stroke="#22C79A" stroke-width="1.7"/>
  <path d="M8.25 17C8.58579 15.9072 9.6032 15.125 10.8036 15.125H11.1964C12.3968 15.125 13.4142 15.9072 13.75 17" stroke="#22C79A" stroke-width="1.7" stroke-linecap="round" stroke-linejoin="round"/>
  <path d="M13.5 17C13.7598 16.1977 14.5058 15.625 15.3846 15.625H15.6154C16.4942 15.625 17.2402 16.1977 17.5 17" stroke="#22C79A" stroke-width="1.7" stroke-linecap="round" stroke-linejoin="round"/>
</svg>
