<svg xmlns="http://www.w3.org/2000/svg" width="101" height="24" fill="none"><path fill="#858585" fill-rule="evenodd" d="m93.473 16.19-.07-.585c-.015-.098-.346-2.405 1.225-4.027.457-.473 1.009-.745 1.513-.745.43 0 .783.187.963.544.867 1.726-3.63 4.813-3.63 4.813zm-6.837-3.635-.06-.974-.01-.122c0-.03-.219-3.112-.025-5.305.213-2.385.913-3.925 1.78-3.925.178 0 .349.09.482.257.433.539.56 1.977.288 3.272-.436 2.069-1.128 3.71-1.634 4.91-.144.34-.27.64-.37.902l-.451.985zm-4.743 6.496c-1.109 0-1.633-1.061-1.633-2.058 0-5.145 2.843-6.16 4.087-5.764 0 0 .04.977.14 2.235.088 1.092.166 2.385.185 2.496 0 0-1.033 3.09-2.78 3.09zm-9.036-7.622s-.316 7.622-3.195 7.622c-1.378 0-1.485-1.536-1.485-2.008 0-5.436 4.126-6.403 4.68-5.614zm-26.629 7.804c-1.65 0-2.239-1.638-2.239-3.17 0-2.793 1.628-4.96 3.028-4.96 1.363 0 1.858 1.873 1.858 3.131 0 2.803-1.163 4.999-2.647 4.999zM19.954 12.75c-.947 1.472-3.103 2.928-3.73 3.16 0 0-.45-2.883 1.905-4.566 1.724-1.233 2.509.343 1.825 1.406zm71.992 6.76c.673 1.06 1.87 1.575 3.563 1.575 1.861 0 3.787-1.4 4.889-2.703.655-.773.726-1.217.45-1.46-.25-.22-.804.068-1.31.527-.685.619-2.133 1.508-3.4 1.508-1.537 0-2.237-.999-2.237-.999 3.13-1.91 5.434-4.077 5.434-5.938 0-2.085-1.545-3.018-3.077-3.018-2.74 0-5.699 2.505-5.699 6.553 0 1.338.45 2.475.45 2.475s-.543.846-2.271.703c-1.837-.152-1.72-3.474-1.72-3.474s.562-1.048.774-1.438c1.243-2.284 2.944-5.413 3.22-9.164.152-2.101-.443-3.23-.969-3.807C89.575.336 88.95.03 88.37.03c-2.124 0-3.598 2.18-3.955 4.335-.35 2.113-.21 5.255-.21 5.255s-1.908-.472-3.823.828c-1.753 1.19-2.53 3.57-2.775 4.772a6.308 6.308 0 0 0-.113 1.677c.017.268.099.784.099.784s-.63 1.328-1.75 1.328c-1.804 0-.613-8.368-.544-8.839.056-.379.287-1.187-.985-1.244-.77-.034-1.09.253-1.15.628l-.05.373s-2.61-1.776-5.562 1.423c-1.574 1.702-2.145 4.164-2.17 6.14l-.002.124s-.647 1.872-2.153 1.591c-1.002-.186-1.129-1.971-1.129-2.661 0-1.324.305-2.799.55-3.984.155-.75.29-1.398.29-1.753 0-1.265-.355-1.805-1.185-1.805-1.13 0-2.143.896-3.266 2.278-1.433 1.765-2.5 4.522-2.5 4.522s.047-.493.121-.968c.048-.307.179-1.73.42-3.023.133-.715.181-1.3.19-1.364.042-.35-.037-.653-.228-.875a1.034 1.034 0 0 0-.79-.343c-.501 0-1.147.335-1.454 1.277-.14.426-.22.74-.32 1.245l-.094.468-.349-.318c-1.382-1.265-3.296-2.773-6.042-2.773-3.866 0-5.953 3.583-5.953 6.954 0 .415.026.812.076 1.179l.02.144s-.808 1.956-2.224 1.6c-.62-.156-1.002-.818-1.002-2.395 0-1.311.263-3.093.42-4.163.053-.363.096-.65.108-.783l.035-.395c.108-1.19.139-1.728-.255-1.988a1.665 1.665 0 0 0-.933-.279c-.324 0-.58.15-.807.313-.35.25-1.495 1.776-3.657 5.308a2.483 2.483 0 0 1-.057.09l-.236.455-.568 1.25.31-1.816.02-.12c.05-.305.139-.843.176-1.015l.09-.394c.147-.633.45-1.95.491-2.182.13-.77.079-1.286-.157-1.574-.174-.212-.466-.315-.892-.315-.784 0-1.416.597-2.504 2.366-.17.276-.806 1.332-1.308 2.167-.651 1.083-1.242 1.884-1.242 1.884l.137-1.447c.105-.65.499-3.636.504-3.777-.001-.63-.312-.922-.98-.922-.271 0-.933.06-1.21.614-.255.506-.96 2.801-1.303 6.31 0 0-2.73 2.645-5.648 2.645-1.076 0-1.927-.421-2.235-1.244 0 0 1.56-.817 2.302-1.333 1.899-1.323 3.28-2.67 3.28-4.402 0-2.118-1.94-3.071-3.541-2.86-2.751.36-5.077 3.26-5.077 6.63 0 3.169 1.755 5.452 4.809 5.452 3.537 0 5.979-2.935 5.979-2.935l-.074 1.34c-.045.698.241 1.595 1.406 1.595.309 0 .874-.099 1.174-.762a78.989 78.989 0 0 1 3.728-7.173l.065-.108.33-.635.49-.823-.393 1.766c-.072.403-.697 3.986-.786 5.566-.046.798-.047 1.583.263 1.92.157.17.41.25.793.25.858 0 1.39-.3 1.582-.888 1.396-4.244 2.9-7.108 2.964-7.228l.06-.111.789-1.55s-.623 3.535-.623 5.946c0 1.152.225 3.249 1.857 3.648 2.512.613 4.056-2.002 4.056-2.002l.163.458c.717 1.21 1.909 1.85 3.446 1.85 3.187 0 5.246-2.489 5.246-6.342 0-2.39-1.096-3.76-1.096-3.76s1.216.429 2.109 1.072a12.448 12.448 0 0 1 1.654 1.434l-.023.158c-.03.183-.055.368-.081.555-.1.74-.19 1.514-.264 2.304-.07.737-.105 1.403-.105 1.98 0 .35.018.673.058.988.035.294.107.561.213.794a1.27 1.27 0 0 0 1.152.693c.535 0 .878-.194 1.132-.786 2.475-5.79 4.459-7.645 4.633-7.83.46-.485.253.42.253.42l-.019.119c-.003.019-.309 1.98-.378 2.576-.069.588-.104 1.15-.104 1.67 0 1.613.359 3.451 2.237 3.741 2.567.398 3.456-1.618 3.456-1.618s.929 1.708 3.122 1.708c3.215 0 4.21-2.466 4.21-2.466.34 1.484.942 2.284 2.392 2.284 1.57 0 2.66-1.77 2.66-1.77s.908 1.952 3.126 1.952c2.568 0 3.88-1.967 3.935-2.05l.297-.467s.837 2.123 2.993 2.245c2.039.115 3.44-1.303 3.44-1.303zm-88.102.758c-2.267-.084-2.392-1.848-.31-2.303 1.903-.416 3.49.25 3.49.25s-.48 2.153-3.18 2.053zM13.912 2.44c1.31.108 1.211 1.931.855 3.074-1.045 3.352-3.543 3.452-3.543 3.452s.79-6.682 2.688-6.526zm-2.91 8.127s4.2.028 5.63-4.929c.833-2.885-.346-5.344-2.804-5.396C11.346.19 9.425 2.388 8.524 8.96c0 0-2.4-.317-3.46-2.21-.5-.896-1.257-.479-1.021.372.797 2.879 4.33 3.342 4.33 3.342s-.147 1.275-.365 2.835c-.212 1.513-.576 3.417-.576 3.417s-2.229-.705-4.6-.21c-3.643.762-4.044 5.282.414 5.729 5.229.523 6.216-3.094 6.216-3.094s1.027.5 2.485 1.803c1.615 1.445 2.354 2.342 2.688 2.02.368-.352-.441-1.581-1.939-3.15-1.694-1.774-2.866-2.232-2.866-2.232s.28-1.174.585-3.079c.324-2.016.588-3.937.588-3.937z" clip-rule="evenodd"/></svg>