<svg xmlns="http://www.w3.org/2000/svg" width="24" height="24" fill="none"><path fill="#16CA92" d="M12.068 22a8.057 8.057 0 1 1 8.045-8.045A8.066 8.066 0 0 1 12.068 22Zm0-15.34a7.285 7.285 0 1 0 7.274 7.295 7.303 7.303 0 0 0-7.274-7.295Zm1.842-2.387h-3.706a.385.385 0 0 1-.386-.387v-1.5A.386.386 0 0 1 10.204 2h3.706a.386.386 0 0 1 .386.387v1.5a.387.387 0 0 1-.386.386ZM10.59 3.5h2.933v-.73h-2.932v.73Z"/><path fill="#16CA92" d="M12.068 5.341a.386.386 0 0 1-.386-.387V3.886a.387.387 0 1 1 .772 0v1.068a.387.387 0 0 1-.386.387Zm0 9.909a1.296 1.296 0 1 1 1.295-1.296 1.308 1.308 0 0 1-1.295 1.295Zm0-1.818a.52.52 0 1 0 .521.521.528.528 0 0 0-.52-.521Z"/><path fill="#16CA92" d="M12.069 13.432a.387.387 0 0 1-.387-.385V9.522a.386.386 0 0 1 .772 0v3.525a.386.386 0 0 1-.386.385Z"/><path fill="#16CA92" d="M12.069 20.454a6.507 6.507 0 0 1-6.5-6.5.386.386 0 1 1 .772 0 5.718 5.718 0 1 0 5.732-5.732.387.387 0 1 1 0-.772 6.5 6.5 0 0 1 0 13l-.004.004ZM5.682 7.978a.386.386 0 0 1-.277-.118l-.75-.773a.387.387 0 1 1 .554-.538l.75.773a.387.387 0 0 1-.277.656Z"/><path fill="#16CA92" d="M4.545 7.591a.387.387 0 0 1-.27-.664l.773-.75a.387.387 0 0 1 .54.554l-.774.75a.385.385 0 0 1-.269.11Zm13.887.387a.387.387 0 0 1-.277-.656l.75-.773a.386.386 0 1 1 .554.538l-.75.773a.386.386 0 0 1-.277.118Z"/><path fill="#16CA92" d="M19.569 7.591a.385.385 0 0 1-.27-.104l-.772-.75a.387.387 0 1 1 .537-.555l.774.75a.387.387 0 0 1-.27.664v-.005Z"/></svg>