<svg xmlns="http://www.w3.org/2000/svg" width="24" height="24" fill="none"><path fill="#16CA92" stroke="#16CA92" stroke-width=".181" d="m3.527 14.213-.154.154a1.566 1.566 0 0 0 0 2.216l.154-2.37Zm0 0 7.37-7.37a1.563 1.563 0 0 1 1.4-.431l1.718.254c.309-.693.882-1.524 1.452-2.094.91-.91 2.012-1.462 3.06-1.617 1.048-.155 2.048.087 2.74.778.69.691.933 1.692.778 2.74-.155 1.047-.707 2.15-1.617 3.06a5.96 5.96 0 0 1-2 1.328l.254 1.938a1.566 1.566 0 0 1-.436 1.379l-7.532 7.531a1.568 1.568 0 0 1-2.216 0l-5.125-5.126.154-2.37Zm13.236-3.016a3.253 3.253 0 0 1-1.195-.215 1.042 1.042 0 1 1 .369-.715c.476.168 1.033.178 1.612.041l-.28-2.134a.327.327 0 0 0-.251-.255l-4.846-.717h-.002l-.014-.003h-.002a.766.766 0 0 0-.692.21l-7.524 7.524a.768.768 0 0 0 0 1.085l5.126 5.126a.768.768 0 0 0 1.085 0l7.532-7.532a.768.768 0 0 0 .212-.68v-.004l-.24-1.83a4.27 4.27 0 0 1-.89.099Zm0 0-.001-.09v.09Zm3.099-2.23c.766-.765 1.238-1.675 1.386-2.523.149-.849-.028-1.626-.547-2.145-.519-.52-1.296-.696-2.145-.547-.848.148-1.758.62-2.523 1.386a7.04 7.04 0 0 0-1.19 1.65l2.302.342h.002l.015.002h.002a1.124 1.124 0 0 1 .892.906l.001.004.263 2.001a5.213 5.213 0 0 0 1.542-1.076Z"/></svg>