<svg xmlns="http://www.w3.org/2000/svg" width="114" height="22" fill="none"><path stroke="#171717" stroke-linecap="round" stroke-linejoin="round" stroke-width="1.572" d="M14.426 20.959H5.314c-2.066 0-3.756-1.785-3.756-3.967V9.885h15.055v7.107m-13.5-9.645c0-3.483 2.673-6.306 5.97-6.306 3.299 0 5.972 2.823 5.972 6.306"/><path fill="#16CA92" stroke="#16CA92" stroke-width=".524" d="M8.492 17.253a.436.436 0 0 0 .334.137.44.44 0 0 0 .335-.137l2.788-2.945c.186-.196.186-.51 0-.687-.186-.196-.483-.196-.65 0l-2.473 2.59-1.524-1.609c-.185-.196-.483-.196-.65 0-.186.197-.186.511 0 .688l1.84 1.963Z"/><path fill="#171717" d="M25.445 14.247c.659 1.471 2.069 2.437 4.107 2.437 2.514 0 3.74-1.349 3.74-3.158 0-1.64-.904-2.467-2.85-3.25-1.564-.643-2.422-.811-2.422-1.792 0-.66.613-1.135 1.456-1.135.98 0 1.625.368 2.023.997l1.41-.966c-.659-.996-1.762-1.747-3.464-1.747-1.809 0-3.31 1.118-3.31 2.881 0 1.886 1.348 2.59 3.065 3.234 1.303.49 2.176.859 2.176 1.824 0 .522-.322 1.395-1.808 1.395-1.288 0-2.192-.659-2.683-1.625l-1.44.905Zm8.894-1.548c0 2.421 1.671 3.985 4.093 3.985 1.165 0 2.253-.322 3.25-1.38l-1.104-1.072c-.583.582-1.15.889-2.085.889-1.364 0-2.268-.798-2.33-2.024h6.009c.03-.306.03-.644.03-.644 0-2.16-1.517-3.893-3.816-3.893-2.315 0-4.047 1.594-4.047 4.077v.062Zm1.87-.89c.077-.934 1.027-1.685 2.177-1.685 1.073 0 1.947.766 1.947 1.686h-4.124Zm6.917.813c0 2.36 1.87 4.093 4.2 4.093 1.15 0 2.207-.384 3.096-1.334l-1.134-1.18c-.521.536-1.135.843-1.962.843-1.35 0-2.376-1.027-2.376-2.422 0-1.395 1.027-2.422 2.376-2.422.827 0 1.44.307 1.962.843l1.134-1.18c-.89-.95-1.947-1.333-3.096-1.333-2.33 0-4.2 1.732-4.2 4.092Zm8.358.812c0 2.208 1.61 3.265 3.525 3.265 1.932 0 3.556-1.073 3.556-3.31V8.774h-1.854v4.49c0 1.227-.72 1.748-1.686 1.748s-1.686-.52-1.686-1.732V8.775h-1.855v4.66Zm8.654 3.066h1.824v-4.062c0-1.272.812-2.07 2.084-2.07.292 0 .552.031.767.077V8.667a3.912 3.912 0 0 0-.552-.046c-1.104 0-1.931.506-2.3 1.303v-1.15h-1.823V16.5Zm5.171-3.801c0 2.421 1.67 3.985 4.093 3.985 1.164 0 2.253-.322 3.249-1.38l-1.104-1.072c-.582.582-1.15.889-2.084.889-1.364 0-2.269-.798-2.33-2.024h6.008c.031-.306.031-.644.031-.644 0-2.16-1.517-3.893-3.816-3.893-2.315 0-4.047 1.594-4.047 4.077v.062Zm1.87-.89c.077-.934 1.027-1.685 2.177-1.685 1.073 0 1.946.766 1.946 1.686H67.18ZM78.827 16.5h1.916v-4.537h4.154v-1.732h-4.154V7.549h4.552V5.816h-6.468V16.5Zm7.183-3.863c0 2.315 1.87 4.093 4.215 4.093 2.33 0 4.216-1.778 4.216-4.093 0-2.314-1.886-4.092-4.216-4.092-2.345 0-4.215 1.778-4.215 4.092Zm1.824 0c0-1.364 1.027-2.421 2.391-2.421 1.35 0 2.392 1.057 2.392 2.421 0 1.365-1.043 2.422-2.392 2.422-1.364 0-2.39-1.057-2.39-2.422Zm7.929 3.863h1.824v-4.062c0-1.272.812-2.07 2.084-2.07.291 0 .552.031.767.077V8.667a3.926 3.926 0 0 0-.552-.046c-1.104 0-1.931.506-2.3 1.303v-1.15h-1.823V16.5Zm6.017 0h1.824v-4.445c0-1.058.644-1.793 1.502-1.793.889 0 1.38.674 1.38 1.716V16.5h1.824v-4.445c0-1.058.643-1.793 1.532-1.793s1.38.674 1.38 1.716V16.5h1.839v-4.782c0-1.901-.981-3.097-2.682-3.097-1.119 0-2.054.384-2.529 1.35-.368-.859-1.089-1.35-2.162-1.35-1.011 0-1.762.522-2.084 1.257V8.775h-1.824V16.5Z"/></svg>