<svg xmlns="http://www.w3.org/2000/svg" width="120" height="32" fill="none"><g clip-path="url(#a)"><path fill="#858585" d="M21.9.856H8.213a8.212 8.212 0 0 0 0 16.425h13.689a8.212 8.212 0 0 0 0-16.425Z"/><path fill="#BDBDBD" d="M21.387 14.803a5.647 5.647 0 1 0 0-11.295 5.647 5.647 0 0 0 0 11.295Z"/><path fill="#858585" d="M42.11 3.386h-5.218V.7h13.353v2.687h-5.217v13.772h-2.919V3.386ZM49.623 11.025v-.049a6.487 6.487 0 0 1 6.64-6.486c3.805 0 6.605 2.89 6.605 6.441v.045c0 3.526-2.82 6.465-6.64 6.465s-6.605-2.893-6.605-6.416Zm10.39 0v-.049c0-2.184-1.577-3.994-3.81-3.994s-3.735 1.786-3.735 3.949v.045c0 2.163 1.576 3.974 3.784 3.974 2.29 0 3.746-1.786 3.746-3.925h.014ZM64.999 11.025v-.049a6.487 6.487 0 0 1 6.64-6.486c3.805 0 6.604 2.89 6.604 6.441v.045c0 3.526-2.82 6.465-6.64 6.465-3.819 0-6.604-2.893-6.604-6.416Zm10.39 0v-.049c0-2.184-1.577-3.994-3.81-3.994s-3.735 1.786-3.735 3.949v.045c0 2.163 1.576 3.974 3.784 3.974 2.29 0 3.746-1.786 3.746-3.925h.014ZM81.074 11.025v-.049a6.487 6.487 0 0 1 6.64-6.486c3.805 0 6.605 2.89 6.605 6.441v.045c0 3.526-2.82 6.465-6.64 6.465s-6.605-2.893-6.605-6.416Zm10.39 0v-.049c0-2.184-1.576-3.994-3.81-3.994-2.233 0-3.735 1.786-3.735 3.949v.045c0 2.163 1.576 3.974 3.784 3.974 2.29 0 3.747-1.786 3.747-3.925h.014Z"/><path fill="#858585" d="M91.558 8.352V4.4h2.844v11.969c0 2.096-.541 3.64-1.576 4.675-1.125 1.129-2.865 1.67-5.112 1.67a10.68 10.68 0 0 1-5.546-1.481l1.048-2.139a8.153 8.153 0 0 0 4.421 1.318c2.537 0 3.924-1.318 3.924-3.81v-.964M75.483 8.352V4.4h2.844v11.969c0 2.096-.541 3.64-1.576 4.675-1.125 1.129-2.865 1.67-5.112 1.67-1.95.022-3.867-.49-5.546-1.481l1.048-2.139a8.153 8.153 0 0 0 4.42 1.318c2.538 0 3.925-1.318 3.925-3.81v-.964M97.789 0h2.855v17.158h-2.845L97.79 0ZM103.317 11v-.048c0-3.547 2.516-6.462 6.063-6.462 3.949 0 5.941 3.104 5.941 6.675 0 .259-.025.517-.049.8h-9.111c.305 2.02 1.748 3.146 3.572 3.146 1.398 0 2.373-.518 3.362-1.482l1.667 1.482a6.296 6.296 0 0 1-5.075 2.327c-3.595.003-6.37-2.607-6.37-6.437Zm9.208-.915c-.189-1.834-1.268-3.267-3.145-3.267-1.747 0-2.96 1.338-3.219 3.267h6.364ZM120 5.591a2.032 2.032 0 0 1-.561 1.482 2.008 2.008 0 0 1-1.457.622 2.022 2.022 0 0 1-1.89-1.305 2.013 2.013 0 0 1 .492-2.172A2.02 2.02 0 0 1 120 5.59Zm-.388 0a1.627 1.627 0 0 0-2.825-1.247 1.625 1.625 0 0 0-.418 1.247 1.63 1.63 0 0 0 2.78 1.152 1.63 1.63 0 0 0 .477-1.152h-.014Zm-1.269.224.472.79h-.412l-.447-.766h-.329v.766h-.349V4.508h.838a.667.667 0 0 1 .494.188.674.674 0 0 1 .205.486.612.612 0 0 1-.472.63v.003Zm.147-.647a.344.344 0 0 0-.108-.253.353.353 0 0 0-.259-.096h-.482v.67h.475c.213.011.374-.08.374-.324v.003ZM45.153 28.925h-3.166l-.465.992h-.737l2.446-5.242h.7l2.446 5.242h-.741l-.483-.992Zm-.304-.675-1.279-2.74-1.286 2.74h2.565ZM49.347 24.69h3.211v.67h-2.54v1.608h2.54v.67h-2.54v2.279h-.671v-5.228ZM54.756 26.094c.993 0 1.5.468 1.5 1.398v2.425h-.644v-.531a1.415 1.415 0 0 1-1.223.622 1.164 1.164 0 0 1-1.272-1.174c0-.643.458-1.077 1.206-1.15l1.048-.105c.171 0 .238-.073.238-.203v-.094c0-.391-.304-.615-.828-.615s-.888.241-.965.675l-.566-.308c.16-.611.681-.94 1.506-.94Zm-.35 2.188c-.38.045-.604.255-.604.559 0 .304.262.562.7.562a1.066 1.066 0 0 0 1.124-.996v-.276l-1.22.15ZM59.013 26.094c.117.002.234.013.35.035v.699a1.465 1.465 0 0 0-.375-.046c-.835 0-1.097.57-1.097 1.398v1.747h-.643v-3.746h.619v.563a1.223 1.223 0 0 1 1.146-.65ZM64.587 26.094c.957 0 1.45.566 1.45 1.674v2.149h-.65v-2.233c0-.65-.3-.992-.867-.992-.74 0-1.107.492-1.107 1.485v1.747h-.64v-2.24c0-.65-.308-.992-.884-.992-.724 0-1.083.492-1.083 1.485v1.747h-.643v-3.743h.622v.598a1.378 1.378 0 0 1 2.41.052 1.538 1.538 0 0 1 1.392-.737ZM68.741 26.094c1.17 0 1.793.85 1.793 1.957v.192h-2.988a1.16 1.16 0 0 0 1.223 1.16 1.52 1.52 0 0 0 1.188-.576l.35.503a1.972 1.972 0 0 1-1.492.67 1.806 1.806 0 0 1-1.905-1.928c-.014-1.09.703-1.978 1.831-1.978Zm0 .598a1.105 1.105 0 0 0-1.174 1.048h2.258a1.025 1.025 0 0 0-1.077-1.048h-.007ZM73.141 26.094c.118.002.234.014.35.035v.699a1.501 1.501 0 0 0-.374-.046c-.839 0-1.097.57-1.097 1.398v1.747h-.626v-3.746h.619v.563a1.216 1.216 0 0 1 1.128-.65ZM75.57 26.094a1.56 1.56 0 0 1 1.471.814l-.53.35a1.006 1.006 0 0 0-.972-.546c-.434 0-.73.172-.73.486 0 .315.31.402.887.545.786.193 1.345.35 1.345 1.119 0 .768-.524 1.167-1.436 1.167a1.747 1.747 0 0 1-1.65-.874l.532-.35a1.175 1.175 0 0 0 1.142.612c.5 0 .77-.178.77-.524 0-.346-.284-.426-.829-.552-.699-.164-1.398-.35-1.398-1.136-.007-.678.531-1.111 1.398-1.111ZM79.708 25.696a1.107 1.107 0 1 1-1.108-1.108 1.079 1.079 0 0 1 1.108 1.108Zm-.213 0a.895.895 0 1 0-.895.894.868.868 0 0 0 .895-.894Zm-.7.122.266.437h-.223l-.248-.42h-.179v.42h-.189v-1.16h.451a.366.366 0 0 1 .392.37.35.35 0 0 1-.266.353h-.003Zm.081-.35a.187.187 0 0 0-.06-.137.186.186 0 0 0-.143-.048h-.262v.35h.262c.12.014.206-.035.206-.168l-.003.003ZM85.229 24.69a2.68 2.68 0 0 1 1.82.698l-.304.636a2.096 2.096 0 0 0-1.54-.699 1.943 1.943 0 1 0-.022 3.886 2.24 2.24 0 0 0 1.597-.664l.308.633c-.521.47-1.203.72-1.905.698a2.62 2.62 0 1 1 .046-5.241v.052ZM89.461 26.094a1.957 1.957 0 1 1-1.957 1.957 1.908 1.908 0 0 1 1.957-1.957Zm0 .618a1.339 1.339 0 1 0 1.293 1.339 1.255 1.255 0 0 0-1.293-1.339ZM96.695 26.094c.958 0 1.45.566 1.45 1.674v2.149H97.5v-2.233c0-.65-.297-.992-.867-.992-.74 0-1.104.492-1.104 1.485v1.747h-.643v-2.24c0-.65-.308-.992-.88-.992-.728 0-1.084.492-1.084 1.485v1.747h-.643v-3.743h.618v.598a1.397 1.397 0 0 1 2.415.052 1.527 1.527 0 0 1 1.384-.737ZM99.305 26.181h.64v.538a1.583 1.583 0 0 1 1.317-.625c1.048 0 1.8.807 1.8 1.957s-.741 1.957-1.8 1.957a1.633 1.633 0 0 1-1.317-.636v2.04h-.64v-5.23Zm3.086 1.87c0-.821-.496-1.36-1.248-1.36-.751 0-1.247.528-1.247 1.36 0 .832.492 1.36 1.247 1.36.755 0 1.248-.539 1.248-1.36ZM105.368 26.094c.996 0 1.503.468 1.503 1.398v2.425h-.636v-.531a1.424 1.424 0 0 1-1.223.622 1.16 1.16 0 0 1-1.178-.7 1.174 1.174 0 0 1-.094-.474c0-.643.458-1.077 1.202-1.15l1.048-.105c.172 0 .238-.073.238-.203v-.094c0-.391-.304-.615-.828-.615s-.888.241-.965.675l-.566-.308c.157-.611.678-.94 1.499-.94Zm-.349 2.188c-.381.045-.605.255-.605.559 0 .304.259.562.699.562a1.07 1.07 0 0 0 1.122-.996v-.276l-1.216.15ZM107.881 26.181h.618v.577a1.38 1.38 0 0 1 1.248-.664c.881 0 1.398.58 1.398 1.576v2.247h-.657v-2.226c0-.643-.329-1-.919-1-.699 0-1.049.5-1.049 1.486v1.747h-.643l.004-3.743ZM113.224 29.424l-1.628-3.243h.779l1.199 2.495 1.156-2.495h.682l-2.415 5.242h-.699l.926-1.999Z"/></g><defs><clipPath id="a"><path fill="#fff" d="M0 0h120v31.413H0z"/></clipPath></defs></svg>